# xmcd
#
# Track frame offsets: 
#        183
#        9900
#        20668
#        32678
#        42598
#        55525
#        66205
#        76840
#        88040
#        99605
#        111240
#        121530
#        131805
#        142790
#        154250
#        163975
#        175573
#        188025
#        200550
#        212738
#
# Disc length: 2980 seconds
#
# Revision: 4
# Processed by: cddbd v1.5.2PL0 Copyright (c) Steve Scherf et al.
# Submitted via: ExactAudioCopyFreeDBPlugin 1.0
#
DISCID=080ba214
DTITLE=Hooker, Earl - Earl Hooker and Junior Wells - The Blues Collectio
DTITLE=n 33
DYEAR=1995
DGENRE=Blues
TTITLE0=Love me
TTITLE1=Come on in this house
TTITLE2=Two headed woman
TTITLE3=Lovey Dovey lovey one
TTITLE4=I could cry
TTITLE5=Cha cha cha in blue
TTITLE6=You don't care
TTITLE7=Prison bars all around me
TTITLE8=Calling all blues
TTITLE9=Galloping horses a lazy mule
TTITLE10=Blues in D natural
TTITLE11=Messin' with the kid
TTITLE12=You sure look good to me
TTITLE13=Universal rock
TTITLE14=Rockin' with the kid
TTITLE15=Little by little
TTITLE16=These cotton pickin' blues
TTITLE17=Blue guitar
TTITLE18=I'm a stranger
TTITLE19=I need me a car
EXTD=
EXTT0=Earl Hooker And Junior Wells
EXTT1=Earl Hooker And Junior Wells
EXTT2=Earl Hooker And Junior Wells
EXTT3=Earl Hooker And Junior Wells
EXTT4=Earl Hooker And Junior Wells
EXTT5=Earl Hooker And Junior Wells
EXTT6=Earl Hooker And Junior Wells
EXTT7=Earl Hooker And Junior Wells
EXTT8=Earl Hooker And Junior Wells
EXTT9=Earl Hooker And Junior Wells
EXTT10=Earl Hooker And Junior Wells
EXTT11=Earl Hooker And Junior Wells
EXTT12=Earl Hooker And Junior Wells
EXTT13=Earl Hooker And Junior Wells
EXTT14=Earl Hooker And Junior Wells
EXTT15=Earl Hooker And Junior Wells
EXTT16=Earl Hooker And Junior Wells
EXTT17=Earl Hooker And Junior Wells
EXTT18=Earl Hooker And Junior Wells
EXTT19=Earl Hooker And Junior Wells
PLAYORDER=
